<svg width="93" height="92" viewBox="0 0 93 92" fill="none" xmlns="http://www.w3.org/2000/svg">
<g filter="url(#filter0_i_3_41)">
<path d="M93 46C93 71.4051 72.1812 92 46.5 92C20.8188 92 0 71.4051 0 46C0 20.5949 20.8188 0 46.5 0C72.1812 0 93 20.5949 93 46Z" fill="#B8860B"/>
<path d="M88.5714 46.3129C88.5714 69.4713 69.5938 88.2449 46.1837 88.2449C22.7736 88.2449 3.79592 69.4713 3.79592 46.3129C3.79592 23.1545 22.7736 4.38095 46.1837 4.38095C69.5938 4.38095 88.5714 23.1545 88.5714 46.3129Z" fill="#DAA520"/>
<path d="M45.9721 73.3479V67.2367C43.7646 67.1715 41.7548 66.7152 39.9428 65.8678C38.1636 64.9878 36.7469 63.8633 35.6926 62.4944C34.6712 61.0929 34.1605 59.6263 34.1605 58.0944C34.1605 57.0514 34.4735 56.1714 35.0995 55.4544C35.7585 54.7373 36.6316 54.444 37.7188 54.5744C38.6413 54.6722 39.3332 54.9981 39.7945 55.5522C40.2558 56.0737 40.4699 56.7255 40.437 57.5077C40.437 58.2574 40.1734 59.007 39.6462 59.7566C39.3497 60.1803 39.2179 60.6203 39.2509 61.0767C39.2838 61.5004 39.3497 61.8263 39.4485 62.0544C39.811 62.8693 40.5852 63.6352 41.7713 64.3522C42.9904 65.0367 44.3906 65.4115 45.9721 65.4767V52.0321C44.7201 51.5432 43.4681 50.9566 42.2161 50.2721C40.9971 49.5877 39.8769 48.7892 38.8555 47.8766C37.8341 46.964 37.0105 45.8721 36.3845 44.601C35.7585 43.3299 35.4455 41.8632 35.4455 40.2009C35.4455 38.115 35.9232 36.3876 36.8787 35.0187C37.8341 33.6498 39.1026 32.6068 40.6841 31.8898C42.2985 31.1727 44.0611 30.7327 45.9721 30.5698V27.0497H47.603V30.5209C49.6127 30.6187 51.3754 31.0749 52.891 31.8898C54.4395 32.672 55.642 33.6335 56.4987 34.7742C57.3882 35.915 57.833 37.0883 57.833 38.2943C57.833 39.272 57.553 40.1032 56.9929 40.7876C56.4328 41.4721 55.642 41.8143 54.6207 41.8143C54.1594 41.8143 53.6323 41.7165 53.0392 41.521C52.4462 41.2928 51.9849 40.9017 51.6554 40.3476C51.326 39.7935 51.326 39.0113 51.6554 38.0009C51.6884 37.9357 51.7213 37.838 51.7543 37.7076C51.8861 37.2839 51.9849 36.8439 52.0508 36.3876C52.1497 35.9313 52.0838 35.4913 51.8531 35.0676C51.5566 34.5461 51.1118 33.9594 50.5188 33.3076C49.9257 32.6557 48.9538 32.2972 47.603 32.232V44.9921C48.9538 45.5136 50.2881 46.084 51.606 46.7032C52.9569 47.3225 54.1924 48.0721 55.3126 48.9521C56.4328 49.8321 57.3224 50.8914 57.9813 52.1299C58.6732 53.3359 59.0191 54.8025 59.0191 56.53C59.0191 58.5181 58.5249 60.2781 57.5365 61.81C56.581 63.3419 55.2467 64.5641 53.5334 65.4767C51.8202 66.3893 49.8434 66.9597 47.603 67.1878V73.3479H45.9721ZM47.603 65.4278C48.9208 65.2648 50.0905 64.8737 51.1118 64.2545C52.1332 63.6026 52.9404 62.7878 53.5334 61.81C54.1265 60.8322 54.423 59.8055 54.423 58.73C54.423 57.5892 54.11 56.6766 53.484 55.9922C52.858 55.3077 52.0179 54.721 50.9636 54.2322C49.9422 53.7433 48.822 53.2544 47.603 52.7655V65.4278ZM45.9721 44.3565V32.232C43.9953 32.3624 42.4138 32.9164 41.2277 33.8942C40.0745 34.872 39.498 36.192 39.498 37.8543C39.498 39.0602 39.7945 40.0543 40.3875 40.8365C40.9806 41.6187 41.7548 42.2869 42.7103 42.841C43.6987 43.3624 44.786 43.8676 45.9721 44.3565Z" fill="#EEE8AA" fill-opacity="0.66"/>
<path d="M57.8878 10.6395L58.953 13.1621H62.4004L59.6114 14.7212L60.6767 17.2438L57.8878 15.6847L55.0988 17.2438L56.1641 14.7212L53.3751 13.1621H56.8225L57.8878 10.6395Z" fill="#EEE8AA" fill-opacity="0.57"/>
<path d="M68.6429 18.1497L69.7082 20.6723H73.1555L70.3666 22.2314L71.4318 24.754L68.6429 23.1949L65.8539 24.754L66.9192 22.2314L64.1302 20.6723H67.5776L68.6429 18.1497Z" fill="#EEE8AA" fill-opacity="0.57"/>
<path d="M74.9694 23.7823L76.0347 26.3049H79.4821L76.6931 27.864L77.7584 30.3867L74.9694 28.8276L72.1804 30.3867L73.2457 27.864L70.4567 26.3049H73.9041L74.9694 23.7823Z" fill="#EEE8AA" fill-opacity="0.57"/>
<path d="M79.398 33.1701L80.4633 35.6927H83.9106L81.1216 37.2518L82.1869 39.7744L79.398 38.2153L76.609 39.7744L77.6743 37.2518L74.8853 35.6927H78.3327L79.398 33.1701Z" fill="#EEE8AA" fill-opacity="0.57"/>
<path d="M70.5408 66.966L71.6061 69.4886H75.0535L72.2645 71.0477L73.3298 73.5703L70.5408 72.0113L67.7518 73.5703L68.8171 71.0477L66.0282 69.4886H69.4755L70.5408 66.966Z" fill="#EEE8AA" fill-opacity="0.57"/>
<path d="M65.4796 25.6599L66.5449 28.1825H69.9923L67.2033 29.7416L68.2686 32.2642L65.4796 30.7051L62.6906 32.2642L63.7559 29.7416L60.9669 28.1825H64.4143L65.4796 25.6599Z" fill="#EEE8AA" fill-opacity="0.57"/>
<path d="M57.8878 18.1497L58.953 20.6723H62.4004L59.6114 22.2314L60.6767 24.754L57.8878 23.1949L55.0988 24.754L56.1641 22.2314L53.3751 20.6723H56.8225L57.8878 18.1497Z" fill="#EEE8AA" fill-opacity="0.57"/>
<path d="M13.602 34.4218L14.6673 36.9444H18.1147L15.3257 38.5035L16.391 41.0261L13.602 39.467L10.8131 41.0261L11.8784 38.5035L9.08937 36.9444H12.5367L13.602 34.4218Z" fill="#EEE8AA" fill-opacity="0.57"/>
<path d="M21.8265 40.6803L22.8918 43.2029H26.3392L23.5502 44.762L24.6155 47.2846L21.8265 45.7255L19.0376 47.2846L20.1028 44.762L17.3139 43.2029H20.7612L21.8265 40.6803Z" fill="#EEE8AA" fill-opacity="0.57"/>
<path d="M13.602 49.4422L14.6673 51.9648H18.1147L15.3257 53.5239L16.391 56.0465L13.602 54.4875L10.8131 56.0465L11.8784 53.5239L9.08937 51.9648H12.5367L13.602 49.4422Z" fill="#EEE8AA" fill-opacity="0.57"/>
</g>
<defs>
<filter id="filter0_i_3_41" x="0" y="0" width="94" height="93" filterUnits="userSpaceOnUse" color-interpolation-filters="sRGB">
<feFlood flood-opacity="0" result="BackgroundImageFix"/>
<feBlend mode="normal" in="SourceGraphic" in2="BackgroundImageFix" result="shape"/>
<feColorMatrix in="SourceAlpha" type="matrix" values="0 0 0 0 0 0 0 0 0 0 0 0 0 0 0 0 0 0 127 0" result="hardAlpha"/>
<feOffset dx="1" dy="1"/>
<feGaussianBlur stdDeviation="1"/>
<feComposite in2="hardAlpha" operator="arithmetic" k2="-1" k3="1"/>
<feColorMatrix type="matrix" values="0 0 0 0 0 0 0 0 0 0 0 0 0 0 0 0 0 0 0.15 0"/>
<feBlend mode="normal" in2="shape" result="effect1_innerShadow_3_41"/>
</filter>
</defs>
</svg>
